HIERARCHY
ROOT root
{
	OFFSET	0	13.1	24.9
	CHANNELS 6  Xposition Yposition Zposition Xrotation Yrotation Zrotation
	JOINT spine_1
	{
		OFFSET	0	9.99999	0
		CHANNELS 3  Xrotation Yrotation Zrotation
		JOINT spine_2
		{
			OFFSET	0	112	-10
			CHANNELS 3  Xrotation Yrotation Zrotation
			JOINT spine_3
			{
				OFFSET	0	206.5	19.3
				CHANNELS 3  Xrotation Yrotation Zrotation
				JOINT spine_4
				{
					OFFSET	0	110.4	14.6
					CHANNELS 3  Xrotation Yrotation Zrotation
					JOINT neck_1
					{
						OFFSET	0	71.8	-50.3
						CHANNELS 3  Xrotation Yrotation Zrotation
						JOINT neck_2
						{
							OFFSET	0	86.2	-25.8
							CHANNELS 3  Xrotation Yrotation Zrotation
							JOINT head_ee
							{
								OFFSET	0	179.8	-8.7
								CHANNELS 3  Xrotation Yrotation Zrotation
								End Site
								{
									OFFSET	1	0	0
								}
							}
						}
					}
					JOINT left_clavicle
					{
						OFFSET	-43.2	22.4	-70.8
						CHANNELS 3  Xrotation Yrotation Zrotation
						JOINT left_shoulder
						{
							OFFSET	-93.9	-5.79999	48.7
							CHANNELS 3  Xrotation Yrotation Zrotation
							JOINT left_elbow
							{
								OFFSET	-291.4	-30.8	15.2
								CHANNELS 3  Xrotation Yrotation Zrotation
								JOINT left_lowarm_twist
								{
									OFFSET	-110.7	-3.89999	13.6
									CHANNELS 3  Xrotation Yrotation Zrotation
									JOINT left_hand
									{
										OFFSET	-110.7	-3.89999	13.6
										CHANNELS 3  Xrotation Yrotation Zrotation
										JOINT left_ee
										{
											OFFSET	-80.8	-5.10001	12.1
											CHANNELS 3  Xrotation Yrotation Zrotation
											End Site
											{
												OFFSET	1	0	0
											}
										}
									}
								}
							}
						}
					}
					JOINT right_clavicle
					{
						OFFSET	43.2	22.4	-70.8
						CHANNELS 3  Xrotation Yrotation Zrotation
						JOINT right_shoulder
						{
							OFFSET	93.9	-5.79999	48.7
							CHANNELS 3  Xrotation Yrotation Zrotation
							JOINT right_elbow
							{
								OFFSET	291.4	-30.8	15.2
								CHANNELS 3  Xrotation Yrotation Zrotation
								JOINT right_lowarm_twist
								{
									OFFSET	110.7	-3.89999	13.6
									CHANNELS 3  Xrotation Yrotation Zrotation
									JOINT right_hand
									{
										OFFSET	110.7	-3.89999	13.6
										CHANNELS 3  Xrotation Yrotation Zrotation
										JOINT right_ee
										{
											OFFSET	80.8	-5.10001	12.1
											CHANNELS 3  Xrotation Yrotation Zrotation
											End Site
											{
												OFFSET	1	0	0
											}
										}
									}
								}
							}
						}
					}
				}
			}
		}
	}
	JOINT left_hip
	{
		OFFSET	-82.8	-127.5	0.300001
		CHANNELS 3  Xrotation Yrotation Zrotation
		JOINT left_knee
		{
			OFFSET	-28.2	-396.7	2.2
			CHANNELS 3  Xrotation Yrotation Zrotation
			JOINT left_ankle
			{
				OFFSET	-11.7	-411.3	35.4
				CHANNELS 3  Xrotation Yrotation Zrotation
				JOINT left_toes
				{
					OFFSET	0	-60	-88.6
					CHANNELS 3  Xrotation Yrotation Zrotation
					JOINT left_foot_ee
					{
						OFFSET	-22.5	-16.5	-42.2
						CHANNELS 3  Xrotation Yrotation Zrotation
						End Site
						{
							OFFSET	1	0	0
						}
					}
				}
			}
		}
	}
	JOINT right_hip
	{
		OFFSET	82.8	-127.5	0.300001
		CHANNELS 3  Xrotation Yrotation Zrotation
		JOINT right_knee
		{
			OFFSET	28.2	-396.7	2.2
			CHANNELS 3  Xrotation Yrotation Zrotation
			JOINT right_ankle
			{
				OFFSET	11.7	-411.3	35.4
				CHANNELS 3  Xrotation Yrotation Zrotation
				JOINT right_toes
				{
					OFFSET	0	-60	-88.6
					CHANNELS 3  Xrotation Yrotation Zrotation
					JOINT right_foot_ee
					{
						OFFSET	22.5	-16.5	-42.2
						CHANNELS 3  Xrotation Yrotation Zrotation
						End Site
						{
							OFFSET	1	0	0
						}
					}
				}
			}
		}
	}
}
MOTION
Frames: 6
Frame Time: 0.02
1372.05 701.618 -1475.22 5.74399725245 27.8584942897 -0.961375591422 -3.19183 -0.354929 -1.9884 -3.18966 -0.227709 -2.00695 -3.17855 0.31041 -1.99583 -3.18411 -0.00862319 -2.0198 4.01388 11.5406 1.1186 4.40345 19.0187 1.89 -0.0 0.0 -0.0 5.61365 20.3522 10.6315 12.8814 -38.34 64.4109 2.35632 -49.4057 1.08405 43.8523 -0.564653 -5.4386 1.28545 5.25736 10.6966 -0.0 0.0 -0.0 5.53517 14.1237 -10.0485 -23.8701 24.5883 -61.9253 0.417109 11.6746 -0.0426429 15.0191 -0.282609 1.89226 2.96294 -30.1805 -28.8078 0.0 0.0 0.0 -22.8762 -6.30316 8.38855 -9.78249 0.277517 1.47383 41.9011 21.2344 -5.2322 -34.8979 0.0 0.0 -0.0 0.0 -0.0 24.96 8.00168 -7.65136 -0.296314 -0.0120876 -0.0438658 -15.5552 -20.7196 -2.38475 -36.4519 0.0 0.0 0.0 0.0 0.0 
1359.0914312 705.561 -1501.76875823 5.91140974573 30.0015627825 -1.07455516555 -3.48042 -0.312715 -1.99587 -3.47822 -0.185106 -2.01171 -3.46848 0.362849 -1.98737 -3.47399 0.044495 -2.01972 3.87643 11.1581 0.648664 4.25835 18.7811 1.35468 -0.0 0.0 -0.0 5.51653 19.9425 10.503 11.3337 -37.4918 64.2744 2.32205 -48.9907 1.05811 42.1649 -0.466631 -5.24626 1.11365 5.20716 9.53063 -0.0 0.0 -0.0 5.82356 14.9789 -10.6057 -22.6008 24.7566 -62.4455 0.422577 11.8233 -0.0437563 14.7173 -0.281846 1.85372 2.93129 -30.0882 -28.5958 0.0 0.0 0.0 -22.4259 -6.28785 7.26273 -13.1032 0.314044 1.98198 39.9161 20.5211 -5.03314 -35.6399 0.0 0.0 -0.0 0.0 -0.0 24.7269 7.94627 -8.16822 -3.14183 -0.116549 -0.468025 -14.2757 -18.1405 -2.16773 -34.7861 0.0 0.0 0.0 0.0 0.0 
1342.80961861 705.759 -1528.25370737 6.98968904509 31.4638925556 -1.24422349453 -3.66219 -0.250705 -1.98862 -3.66 -0.123682 -2.00054 -3.65248 0.425332 -1.95873 -3.65782 0.110715 -2.0013 4.0184 10.3927 -0.0546111 4.38534 18.0342 0.505224 -0.0 0.0 -0.0 5.88236 19.2529 11.0908 9.57965 -36.685 63.9981 2.18587 -47.2709 0.956688 39.4825 -0.322617 -4.93487 0.625256 5.23007 6.30145 -0.0 0.0 -0.0 6.22146 16.5329 -11.3514 -20.9652 25.0682 -62.729 0.410061 11.4826 -0.0412282 14.3665 -0.280703 1.80894 2.88814 -30.1979 -28.343 0.0 0.0 0.0 -21.2733 -6.22819 5.97161 -20.5325 0.288928 3.1208 38.194 20.5846 -4.87142 -34.8507 0.0 0.0 -0.0 0.0 -0.0 23.8979 8.17538 -8.56658 -6.52956 -0.213247 -0.978865 -12.1383 -13.9066 -1.82188 -33.9588 0.0 0.0 0.0 0.0 0.0 
1343.38192387 705.759 -1528.56524751 6.94447602552 30.8519624401 -1.15683950585 -3.66219 -0.250705 -1.98862 -3.66 -0.123682 -2.00054 -3.65248 0.425332 -1.95873 -3.65782 0.110715 -2.0013 4.0184 10.3927 -0.0546111 4.38534 18.0342 0.505224 -0.0 0.0 -0.0 5.88236 19.2529 11.0908 9.57965 -36.685 63.9981 2.18587 -47.2709 0.956688 39.4825 -0.322617 -4.93487 0.625256 5.23007 6.30145 -0.0 0.0 -0.0 6.22146 16.5329 -11.3514 -20.9652 25.0682 -62.729 0.410061 11.4826 -0.0412282 14.3665 -0.280703 1.80894 2.88814 -30.1979 -28.343 0.0 0.0 0.0 -21.2733 -6.22819 5.97161 -20.5325 0.288928 3.1208 38.194 20.5846 -4.87142 -34.8507 0.0 0.0 -0.0 0.0 -0.0 23.8979 8.17538 -8.56658 -6.52956 -0.213247 -0.978865 -12.1383 -13.9066 -1.82188 -33.9588 0.0 0.0 0.0 0.0 0.0 
1297.20675726 717.854 -1587.71297021 9.17331631525 38.4441957837 -2.33667180928 -4.2138 -0.250722 -1.84556 -4.21191 -0.132797 -1.85777 -4.20455 0.395248 -1.8201 -4.20916 0.102888 -1.85967 5.32798 8.59645 -1.16403 5.65875 15.729 -0.979036 -0.0 0.0 -0.0 6.07589 14.7852 11.5948 5.46087 -33.3881 63.7463 1.68044 -39.7721 0.607885 32.8678 -0.0311525 -4.1415 -0.748917 9.90011 -0.699694 -0.0 0.0 -0.0 7.53126 21.1192 -13.8492 -17.7059 27.8787 -60.2231 0.391076 10.9642 -0.037533 13.159 -0.274674 1.65483 3.63269 -30.5629 -33.1654 0.0 0.0 0.0 -14.2541 -6.37558 1.76564 -33.6889 -0.114811 5.09511 26.0762 23.1775 -3.60444 -35.6804 0.0 0.0 -0.0 0.0 -0.0 21.9974 9.40512 -9.67301 -16.5166 -0.320849 -2.50557 2.04274 1.28174 0.301657 -35.833 0.0 0.0 0.0 0.0 0.0 
1299.14280911 717.854 -1588.9772892 9.05215591647 37.4760201334 -2.13970626953 -4.2138 -0.250722 -1.84556 -4.21191 -0.132797 -1.85777 -4.20455 0.395248 -1.8201 -4.20916 0.102888 -1.85967 5.32798 8.59645 -1.16403 5.65875 15.729 -0.979036 -0.0 0.0 -0.0 6.07589 14.7852 11.5948 5.46087 -33.3881 63.7463 1.68044 -39.7721 0.607885 32.8678 -0.0311525 -4.1415 -0.748917 9.90011 -0.699694 -0.0 0.0 -0.0 7.53126 21.1192 -13.8492 -17.7059 27.8787 -60.2231 0.391076 10.9642 -0.037533 13.159 -0.274674 1.65483 3.63269 -30.5629 -33.1654 0.0 0.0 0.0 -14.2541 -6.37558 1.76564 -33.6889 -0.114811 5.09511 26.0762 23.1775 -3.60444 -35.6804 0.0 0.0 -0.0 0.0 -0.0 21.9974 9.40512 -9.67301 -16.5166 -0.320849 -2.50557 2.04274 1.28174 0.301657 -35.833 0.0 0.0 0.0 0.0 0.0 
